<?xml version="1.0" ?><!DOCTYPE svg  PUBLIC '-//W3C//DTD SVG 1.1//EN'  'http://www.w3.org/Graphics/SVG/1.1/DTD/svg11.dtd'><svg enable-background="new 0 0 128 128" height="128px" id="Layer_1" version="1.1" viewBox="0 0 128 128" width="128px" xml:space="preserve" xmlns="http://www.w3.org/2000/svg" xmlns:xlink="http://www.w3.org/1999/xlink"><path d="M36.9,79.3c0.3-0.7,0.7-1.5,1.1-2.2c-1.2,0.2-2.4,0.4-3.7,0.4c-10.2,0-18.5-8.3-18.5-18.5  s8.3-18.5,18.5-18.5S52.9,48.8,52.9,59c0,1.7-0.2,3.3-0.7,4.8c0.7-0.4,1.5-0.7,2.3-1c0.2-1.2,0.4-2.5,0.4-3.8  c0-11.3-9.2-20.5-20.5-20.5S13.9,47.7,13.9,59c0,11.3,9.2,20.5,20.5,20.5C35.2,79.5,36.1,79.4,36.9,79.3z" fill="#2C3E50"/><path d="M66,62.7c-16.6,0-30,13.4-30,30c0,16.6,13.4,30,30,30s30-13.4,30-30C96,76.1,82.6,62.7,66,62.7z M66,120.7  c-15.4,0-28-12.6-28-28s12.6-28,28-28s28,12.6,28,28S81.4,120.7,66,120.7z" fill="#2C3E50"/><path d="M63,108c-2-0.2-4.5-0.9-6.5-2.1l2-4.8c2.1,1.5,4.2,2.2,6.3,2.2c3.1,0,4.7-1.1,4.7-3.3c0-1.1-0.4-2.1-1.2-3.1  c-0.8-1-2.3-2-4.6-3.1c-2.2-1.1-3.8-2.1-4.6-2.8s-1.4-1.6-1.9-2.7c-0.4-1-0.6-2.2-0.6-3.4c0-1.9,0.6-3.5,1.7-4.9  c1.2-1.4,2.7-2.4,4.7-2.9V73h4.8l0,3.7c2.5,0.2,4.4,1,5.6,2l-1.6,4.7c-1.9-1.3-3.9-2-6-2c-1.2,0-2.2,0.3-2.9,1c-0.7,0.7-1,1.5-1,2.5  c0,1.7,1.9,3.5,5.8,5.4c2,1,3.5,1.9,4.4,2.7c0.9,0.8,1.6,1.8,2,2.9c0.5,1.1,0.7,2.3,0.7,3.7c0,1.9-0.5,3.6-1.8,5c-1.2,1.4-3,2.4-5,3  v4.4h-5V108z" fill="#3B97D3"/><path d="M40.3,49.5l-1.4,3c-0.7-0.8-1.9-1-3.6-1c-2.4,0-4,1.5-4.8,4.5h7.1l-0.8,2h-6.8c0,0,0,0.6,0,1c0,0.4,0,1,0,1  H36l-0.7,2h-4.7c0.8,3,2.2,3.9,4.5,3.9c1.8,0,3-0.7,4-2v3.8c-1,0.9-2.5,1.4-4.3,1.4c-2.2,0-3.9-0.6-5.3-2C28.2,65.9,27.4,64,27,62  h-2v-2h1.7c-0.1-1-0.1-2,0-2H25v-2h2c0.5-3,1.4-4.2,2.8-5.5c1.5-1.5,3.3-2.3,5.4-2.3S39,48.5,40.3,49.5z" fill="#3B97D3"/><path d="M97,29.1c-10.5,0-19,8.5-19,19c0,10.5,8.5,19,19,19s19-8.5,19-19C115.9,37.6,107.4,29.1,97,29.1z M97,65  c-9.4,0-17-7.6-17-17s7.6-17,17-17s17,7.6,17,17S106.3,65,97,65z" fill="#2C3E50"/><path d="M66,9.2c-8.5,0-15.5,6.9-15.5,15.5c0,8.5,6.9,15.5,15.5,15.5s15.5-6.9,15.5-15.5C81.5,16.2,74.5,9.2,66,9.2z   M66,38.2c-7.4,0-13.5-6-13.5-13.5s6-13.5,13.5-13.5s13.5,6,13.5,13.5S73.4,38.2,66,38.2z" fill="#2C3E50"/><path d="M95,57v-4h-4v-2h4v-2h-4v-2h3.3l-4-7h4l1.7,4.1c0.4,1,0.7,1.9,1,2.9h0c0.3-1,0.6-1.9,1.1-2.9L100,40h4  l-4.2,7h3.3v2h-4v2h4v2h-4v4H95z" fill="#3B97D3"/><path d="M60,30v-1.1c2-0.4,2.4-1.7,2.4-3c0-0.3,0.2,0.1,0.2-0.9H61v-2h1.2c-0.1,0-0.2-0.9-0.2-1.4  c0-2.4,1.8-3.9,4.3-3.9c1.1,0,1.8,0.3,2.3,0.5l-0.5,2.2c-0.4-0.2-0.9-0.3-1.6-0.3c-1.4,0-1.8,0.7-1.8,1.6c0,0.5,0.1,1.3,0.2,1.3h3v2  h-2.8c0,1-0.1,1.1-0.2,1.5c-0.2,0.5,0,1.1-1,1.5v0h5v2H60z" fill="#3B97D3"/></svg>