<?xml version="1.0" ?><!DOCTYPE svg  PUBLIC '-//W3C//DTD SVG 1.1//EN'  'http://www.w3.org/Graphics/SVG/1.1/DTD/svg11.dtd'><svg enable-background="new 0 0 128 128" height="128px" id="Layer_1" version="1.1" viewBox="0 0 128 128" width="128px" xml:space="preserve" xmlns="http://www.w3.org/2000/svg" xmlns:xlink="http://www.w3.org/1999/xlink"><path d="M87.1,54.8c0-0.1-0.1-0.3-0.2-0.5c-0.3-0.3-0.7-0.2-1.4,0.4L63.2,70.8c-0.4,0.3-0.6,0.8-0.6,1.3  c0,0.4,0.1,0.7,0.4,1c0.6,0.7,1.6,0.8,2.3,0.3l20.9-17.7C86.7,55.4,87.1,55.1,87.1,54.8L87.1,54.8z" fill="#3B97D3"/><path d="M64,18.9c-30.4,0-55.1,24.5-55.1,54.9c0,11.7,3.6,22.2,9.8,31.2h90.4c6.2-9,9.8-19.5,9.8-31.2  C119.1,43.4,94.4,18.9,64,18.9z M107.1,101H20.9c-5.2-8-8-17.4-8-27.2c0-28.2,22.9-51,51.1-51s51.1,22.8,51.1,50.9  C115.1,83.5,112.3,93,107.1,101z" fill="#2C3E50"/><path d="M29.9,99c-5.3-7-8.4-15.7-8.4-25.2c0-23.4,19.1-42.4,42.5-42.4s42.5,18.9,42.5,42.4c0,9.5-3.1,18.3-8.4,25.3  h2.5c5-7,8-15.8,8-25.2c0-24.6-19.9-44.4-44.5-44.4S19.5,49.2,19.5,73.7c0,9.4,3,18.3,8,25.3H29.9z" fill="#3B97D3"/><path d="M64,37.1c-0.6,0-1-0.4-1-1v-4.6c0-0.6,0.4-1,1-1s1,0.4,1,1v4.6C65,36.7,64.6,37.1,64,37.1z" fill="#3B97D3"/><path d="M26.9,73c0,0.6-0.4,1-1,1h-4.6c-0.6,0-1-0.4-1-1c0-0.6,0.4-1,1-1h4.6C26.5,72,26.9,72.4,26.9,73z" fill="#3B97D3"/><path d="M37.3,48c-0.4,0.4-1,0.4-1.4,0l-3.3-3.3c-0.4-0.4-0.4-1,0-1.4c0.4-0.4,1-0.4,1.4,0l3.3,3.3  C37.7,47,37.7,47.6,37.3,48z" fill="#3B97D3"/><path d="M90.4,48c0.4,0.4,1,0.4,1.4,0l3.3-3.3c0.4-0.4,0.4-1,0-1.4c-0.4-0.4-1-0.4-1.4,0l-3.3,3.3  C90,47,90,47.6,90.4,48z" fill="#3B97D3"/><path d="M107.3,73c0,0.6-0.4,1-1,1h-4.6c-0.6,0-1-0.4-1-1c0-0.6,0.4-1,1-1h4.6C106.9,72,107.3,72.4,107.3,73z" fill="#3B97D3"/></svg>