<?xml version="1.0" ?><!DOCTYPE svg  PUBLIC '-//W3C//DTD SVG 1.1//EN'  'http://www.w3.org/Graphics/SVG/1.1/DTD/svg11.dtd'><svg enable-background="new 0 0 128 128" height="128px" id="Layer_1" version="1.1" viewBox="0 0 128 128" width="128px" xml:space="preserve" xmlns="http://www.w3.org/2000/svg" xmlns:xlink="http://www.w3.org/1999/xlink"><path d="M43.5,68h-24c-1.1,0-2,0.9-2,2s0.9,2,2,2h24c1.1,0,2-0.9,2-2S44.6,68,43.5,68z" fill="#2C3E50"/><polygon fill="#3B97D3" points="51,47 51,54 12,54 12,47 10,47 10,56 53,56 53,47 "/><path d="M61,32c0-5.5-4.5-10-10-10H12C6.5,22,2,26.5,2,32v24c0,5.5,4.5,10,10,10h39c5.5,0,10-4.5,10-10V32z M57,56  c0,3.3-2.7,6-6,6H12c-3.3,0-6-2.7-6-6V32c0-3.3,2.7-6,6-6h39c3.3,0,6,2.7,6,6V56z" fill="#2C3E50"/><path d="M108.5,68h-24c-1.1,0-2,0.9-2,2s0.9,2,2,2h24c1.1,0,2-0.9,2-2S109.6,68,108.5,68z" fill="#2C3E50"/><polygon fill="#3B97D3" points="116,47 116,54 77,54 77,47 75,47 75,56 118,56 118,47 "/><path d="M126,32c0-5.5-4.5-10-10-10H77c-5.5,0-10,4.5-10,10v24c0,5.5,4.5,10,10,10h39c5.5,0,10-4.5,10-10V32z   M122,56c0,3.3-2.7,6-6,6H77c-3.3,0-6-2.7-6-6V32c0-3.3,2.7-6,6-6h39c3.3,0,6,2.7,6,6V56z" fill="#2C3E50"/><path d="M96.5,97.6c2.4,0,4.4,2,4.4,4.4s-2,4.4-4.4,4.4s-4.4-2-4.4-4.4S94.1,97.6,96.5,97.6 M96.5,93.6  c-4.6,0-8.4,3.8-8.4,8.4c0,4.6,3.8,8.4,8.4,8.4s8.4-3.8,8.4-8.4C104.9,97.4,101.1,93.6,96.5,93.6L96.5,93.6z" fill="#2C3E50"/><g><path d="M33.9,102H32v-2.2c0-0.1-0.6-0.2-1-0.2s0,0.1-1,0.2v2.2h-0.9c0,0.8,0.4,1.6,1.1,2h2.7   C33.5,103.6,33.9,102.8,33.9,102z" fill="#3B97D3"/><path d="M86.3,104c-0.1-0.6-0.2-1.3-0.2-2H41.9c0,0.7-0.1,1.4-0.2,2H86.3z" fill="#3B97D3"/><path d="M97,99.8c0-0.1-0.6-0.2-1-0.2s0,0.1-1,0.2v2.2h-0.9c0,0.8,0.4,1.6,1.1,2h2.7c0.6-0.4,1.1-1.2,1.1-2H97V99.8   z" fill="#3B97D3"/><path d="M96,91.6c0.3,0,1,0,1,0.1v-16c0-0.6-0.4-1-1-1s-1,0.4-1,1v16C96,91.6,95.7,91.6,96,91.6z" fill="#3B97D3"/><path d="M123.8,102h-16.9c0,0.7-0.1,1.4-0.2,2h17.1c0.6,0,1-0.4,1-1S124.4,102,123.8,102z" fill="#3B97D3"/><path d="M21.1,102H4c-0.6,0-1,0.4-1,1s0.4,1,1,1h17.3C21.2,103.4,21.1,102.7,21.1,102z" fill="#3B97D3"/><path d="M31,91.6c0.3,0,1,0,1,0.1v-16c0-0.6-0.4-1-1-1s-1,0.4-1,1v16C31,91.6,30.7,91.6,31,91.6z" fill="#3B97D3"/></g><path d="M31.5,97.6c2.4,0,4.4,2,4.4,4.4s-2,4.4-4.4,4.4s-4.4-2-4.4-4.4S29.1,97.6,31.5,97.6 M31.5,93.6  c-4.6,0-8.4,3.8-8.4,8.4c0,4.6,3.8,8.4,8.4,8.4s8.4-3.8,8.4-8.4C39.9,97.4,36.1,93.6,31.5,93.6L31.5,93.6z" fill="#2C3E50"/></svg>